<svg xmlns="http://www.w3.org/2000/svg" xmlns:xlink="http://www.w3.org/1999/xlink" width="100" height="66" preserveAspectRatio="xMidYMid meet" version="1.0" viewBox="0 0 75 49.5" zoomAndPan="magnify"><defs><clipPath id="5141d0efe9"><path d="M 0.375 0 L 74.625 0 L 74.625 7 L 0.375 7 Z M 0.375 0" clip-rule="nonzero"/></clipPath><clipPath id="36bf1893e9"><path d="M 0.375 21 L 74.625 21 L 74.625 28 L 0.375 28 Z M 0.375 21" clip-rule="nonzero"/></clipPath><clipPath id="6b4ab8b32f"><path d="M 0.375 42 L 74.625 42 L 74.625 49 L 0.375 49 Z M 0.375 42" clip-rule="nonzero"/></clipPath></defs><g clip-path="url(#5141d0efe9)"><path fill="#8b8b8a" fill-opacity="1" fill-rule="evenodd" d="M 74.625 3.207031 C 74.625 4.972656 73.199219 6.402344 71.441406 6.402344 L 3.558594 6.402344 C 1.800781 6.402344 0.375 4.972656 0.375 3.207031 C 0.375 1.445312 1.800781 0.015625 3.558594 0.015625 L 71.441406 0.015625 C 73.199219 0.015625 74.625 1.445312 74.625 3.207031 Z M 74.625 3.207031"/></g><g clip-path="url(#36bf1893e9)"><path fill="#8b8b8a" fill-opacity="1" fill-rule="evenodd" d="M 74.625 24.503906 C 74.625 26.265625 73.199219 27.695312 71.441406 27.695312 L 3.558594 27.695312 C 1.800781 27.695312 0.375 26.265625 0.375 24.503906 C 0.375 22.738281 1.800781 21.308594 3.558594 21.308594 L 71.441406 21.308594 C 73.199219 21.308594 74.625 22.738281 74.625 24.503906 Z M 74.625 24.503906"/></g><g clip-path="url(#6b4ab8b32f)"><path fill="#8b8b8a" fill-opacity="1" fill-rule="evenodd" d="M 74.625 45.796875 C 74.625 47.5625 73.199219 48.992188 71.441406 48.992188 L 3.558594 48.992188 C 1.800781 48.992188 0.375 47.5625 0.375 45.796875 C 0.375 44.03125 1.800781 42.601562 3.558594 42.601562 L 71.441406 42.601562 C 73.199219 42.601562 74.625 44.03125 74.625 45.796875 Z M 74.625 45.796875"/></g></svg>