<svg xmlns="http://www.w3.org/2000/svg" xmlns:xlink="http://www.w3.org/1999/xlink" width="103" height="40" preserveAspectRatio="xMidYMid meet" version="1.0" viewBox="0 0 77.25 30" zoomAndPan="magnify"><defs><clipPath id="4135ace4da"><path d="M 0.882812 0.0625 L 73 0.0625 L 73 27 L 0.882812 27 Z M 0.882812 0.0625" clip-rule="nonzero"/></clipPath><clipPath id="e8d90af235"><path d="M 69 22 L 75.640625 22 L 75.640625 29 L 69 29 Z M 69 22" clip-rule="nonzero"/></clipPath></defs><g clip-path="url(#4135ace4da)"><path fill="#8d8d8d" fill-opacity="1" fill-rule="nonzero" d="M 71.691406 25.546875 C 71.6875 25.546875 71.683594 25.542969 71.679688 25.542969 C 71.113281 25.441406 70.554688 25.328125 70.011719 25.210938 C 70.007812 25.210938 70.007812 25.210938 70.007812 25.210938 C 69.734375 25.15625 69.46875 25.328125 69.410156 25.601562 C 69.351562 25.875 69.523438 26.144531 69.796875 26.203125 C 70.351562 26.324219 70.921875 26.4375 71.496094 26.542969 C 71.773438 26.59375 72.035156 26.410156 72.085938 26.132812 C 72.136719 25.863281 71.957031 25.601562 71.691406 25.546875 Z M 64.496094 23.664062 C 64.253906 23.613281 64.003906 23.75 63.917969 23.992188 C 63.824219 24.257812 63.964844 24.546875 64.226562 24.640625 C 65.117188 24.953125 66.046875 25.246094 66.988281 25.511719 C 67.257812 25.585938 67.535156 25.429688 67.613281 25.160156 C 67.6875 24.886719 67.527344 24.609375 67.257812 24.535156 C 66.339844 24.277344 65.433594 23.988281 64.5625 23.683594 C 64.542969 23.675781 64.519531 23.667969 64.496094 23.664062 Z M 59.261719 21.363281 C 59.046875 21.316406 58.820312 21.417969 58.710938 21.621094 C 58.582031 21.867188 58.675781 22.175781 58.921875 22.304688 C 59.769531 22.757812 60.644531 23.183594 61.53125 23.574219 C 61.785156 23.6875 62.085938 23.570312 62.195312 23.3125 C 62.308594 23.054688 62.191406 22.757812 61.9375 22.644531 C 61.074219 22.265625 60.222656 21.851562 59.398438 21.410156 C 59.351562 21.386719 59.308594 21.371094 59.261719 21.363281 Z M 2.886719 8.761719 C 2.683594 8.71875 2.464844 8.804688 2.351562 8.996094 C 1.855469 9.816406 1.402344 10.695312 1 11.597656 C 0.886719 11.855469 1.003906 12.15625 1.257812 12.269531 C 1.511719 12.382812 1.8125 12.265625 1.925781 12.011719 C 2.308594 11.144531 2.746094 10.304688 3.21875 9.519531 C 3.363281 9.277344 3.285156 8.96875 3.046875 8.824219 C 2.996094 8.792969 2.941406 8.773438 2.886719 8.761719 Z M 54.425781 18.296875 C 54.238281 18.257812 54.039062 18.328125 53.917969 18.492188 C 53.75 18.71875 53.800781 19.035156 54.027344 19.203125 C 54.832031 19.796875 55.617188 20.332031 56.414062 20.839844 C 56.652344 20.992188 56.964844 20.921875 57.113281 20.683594 C 57.265625 20.449219 57.195312 20.136719 56.957031 19.984375 C 56.175781 19.488281 55.414062 18.964844 54.625 18.382812 C 54.5625 18.339844 54.496094 18.308594 54.425781 18.296875 Z M 49.984375 14.675781 C 49.808594 14.640625 49.621094 14.695312 49.5 14.839844 C 49.316406 15.050781 49.335938 15.371094 49.546875 15.554688 C 50.375 16.28125 51.074219 16.875 51.742188 17.421875 C 51.960938 17.601562 52.277344 17.570312 52.457031 17.351562 C 52.632812 17.136719 52.601562 16.816406 52.382812 16.636719 C 51.722656 16.09375 51.03125 15.507812 50.210938 14.792969 C 50.144531 14.730469 50.066406 14.695312 49.984375 14.675781 Z M 6.480469 4.308594 C 6.328125 4.273438 6.160156 4.316406 6.035156 4.429688 C 5.324219 5.085938 4.652344 5.808594 4.027344 6.585938 C 3.855469 6.800781 3.886719 7.121094 4.105469 7.296875 C 4.324219 7.472656 4.640625 7.4375 4.816406 7.21875 C 5.40625 6.484375 6.046875 5.796875 6.722656 5.175781 C 6.925781 4.988281 6.941406 4.667969 6.75 4.460938 C 6.675781 4.378906 6.582031 4.328125 6.480469 4.308594 Z M 45.679688 10.882812 C 45.503906 10.847656 45.316406 10.90625 45.191406 11.050781 C 45.011719 11.261719 45.035156 11.582031 45.25 11.765625 C 45.933594 12.355469 46.601562 12.945312 47.398438 13.652344 C 47.605469 13.835938 47.925781 13.816406 48.113281 13.609375 C 48.296875 13.398438 48.277344 13.078125 48.070312 12.890625 C 47.269531 12.183594 46.597656 11.589844 45.90625 10.996094 C 45.839844 10.9375 45.761719 10.898438 45.679688 10.882812 Z M 11.253906 1.171875 C 11.15625 1.152344 11.050781 1.160156 10.953125 1.203125 C 10.0625 1.585938 9.1875 2.058594 8.355469 2.609375 C 8.121094 2.765625 8.054688 3.078125 8.210938 3.3125 C 8.363281 3.546875 8.675781 3.609375 8.910156 3.457031 C 9.695312 2.9375 10.515625 2.492188 11.351562 2.136719 C 11.609375 2.023438 11.726562 1.726562 11.617188 1.46875 C 11.546875 1.308594 11.410156 1.203125 11.253906 1.171875 Z M 41.171875 7.347656 C 40.976562 7.308594 40.769531 7.382812 40.652344 7.554688 C 40.492188 7.785156 40.550781 8.101562 40.777344 8.261719 C 41.527344 8.78125 42.269531 9.335938 43.054688 9.953125 C 43.273438 10.125 43.589844 10.089844 43.765625 9.867188 C 43.9375 9.648438 43.898438 9.328125 43.679688 9.15625 C 42.878906 8.523438 42.121094 7.960938 41.355469 7.429688 C 41.296875 7.386719 41.234375 7.363281 41.171875 7.347656 Z M 36.242188 4.4375 C 36.019531 4.390625 35.789062 4.496094 35.6875 4.710938 C 35.5625 4.960938 35.667969 5.265625 35.917969 5.390625 C 36.753906 5.800781 37.589844 6.25 38.402344 6.730469 C 38.640625 6.875 38.953125 6.792969 39.09375 6.550781 C 39.238281 6.3125 39.15625 6 38.917969 5.859375 C 38.082031 5.363281 37.222656 4.898438 36.363281 4.476562 C 36.324219 4.457031 36.28125 4.445312 36.242188 4.4375 Z M 16.828125 0.015625 C 16.796875 0.0078125 16.765625 0.00390625 16.730469 0.00390625 C 15.757812 -0.0078125 14.765625 0.0898438 13.773438 0.300781 C 13.5 0.359375 13.324219 0.628906 13.382812 0.902344 C 13.441406 1.175781 13.710938 1.351562 13.984375 1.292969 C 14.898438 1.101562 15.820312 1.007812 16.71875 1.019531 C 16.996094 1.023438 17.226562 0.796875 17.230469 0.519531 C 17.234375 0.273438 17.0625 0.0625 16.828125 0.015625 Z M 30.929688 2.320312 C 30.675781 2.269531 30.421875 2.414062 30.34375 2.664062 C 30.261719 2.933594 30.410156 3.21875 30.675781 3.300781 C 31.582031 3.585938 32.476562 3.90625 33.335938 4.246094 C 33.597656 4.347656 33.890625 4.222656 33.992188 3.960938 C 34.097656 3.699219 33.96875 3.40625 33.710938 3.300781 C 32.828125 2.953125 31.910156 2.625 30.976562 2.332031 C 30.960938 2.328125 30.945312 2.324219 30.929688 2.320312 Z M 22.539062 0.511719 C 22.527344 0.507812 22.515625 0.507812 22.503906 0.503906 C 21.574219 0.382812 20.609375 0.277344 19.628906 0.191406 C 19.351562 0.167969 19.105469 0.375 19.082031 0.652344 C 19.058594 0.933594 19.261719 1.175781 19.542969 1.203125 C 20.503906 1.285156 21.457031 1.390625 22.371094 1.511719 C 22.648438 1.546875 22.902344 1.351562 22.9375 1.074219 C 22.972656 0.808594 22.796875 0.566406 22.539062 0.511719 Z M 26.523438 1.179688 C 26.140625 1.101562 25.75 1.023438 25.359375 0.953125 C 25.085938 0.902344 24.820312 1.085938 24.769531 1.359375 C 24.71875 1.636719 24.90625 1.902344 25.175781 1.953125 C 26.125 2.125 27.058594 2.324219 27.949219 2.542969 C 28.222656 2.609375 28.496094 2.441406 28.5625 2.167969 C 28.628906 1.898438 28.460938 1.621094 28.191406 1.558594 C 27.644531 1.425781 27.085938 1.296875 26.523438 1.179688"/></g><g clip-path="url(#e8d90af235)"><path fill="#8d8d8d" fill-opacity="1" fill-rule="nonzero" d="M 75.359375 26.164062 L 71.335938 22.976562 C 71 22.710938 70.515625 23.003906 70.589844 23.421875 L 71.003906 25.789062 C 71.019531 25.886719 71.003906 25.988281 70.960938 26.078125 L 69.890625 28.222656 C 69.699219 28.605469 70.082031 29.023438 70.476562 28.863281 L 75.242188 26.964844 C 75.574219 26.832031 75.640625 26.386719 75.359375 26.164062"/></g></svg>