<svg xmlns="http://www.w3.org/2000/svg" xmlns:xlink="http://www.w3.org/1999/xlink" width="110" height="120" preserveAspectRatio="xMidYMid meet" version="1.0" viewBox="0 0 82.5 90" zoomAndPan="magnify"><defs><clipPath id="cf3a43e5d7"><path d="M 0 29 L 82.003906 29 L 82.003906 71 L 0 71 Z M 0 29" clip-rule="nonzero"/></clipPath><clipPath id="2ea3902407"><path d="M 8 85 L 60 85 L 60 89.726562 L 8 89.726562 Z M 8 85" clip-rule="nonzero"/></clipPath></defs><path fill="#10c79c" fill-opacity="1" fill-rule="nonzero" d="M 19.46875 21.910156 C 19.425781 22.007812 19.386719 22.09375 19.136719 22.160156 C 18.914062 22.21875 18.703125 22.316406 18.515625 22.449219 C 18.324219 22.585938 18.164062 22.75 18.035156 22.941406 C 17.90625 23.132812 17.8125 23.34375 17.761719 23.570312 C 17.707031 23.792969 17.695312 24.023438 17.726562 24.253906 C 17.753906 24.484375 17.824219 24.699219 17.933594 24.90625 C 18.042969 25.109375 18.183594 25.289062 18.359375 25.445312 C 18.535156 25.597656 18.730469 25.714844 18.949219 25.796875 C 19.164062 25.878906 19.390625 25.917969 19.625 25.917969 C 19.789062 25.917969 19.949219 25.898438 20.109375 25.855469 C 20.753906 25.699219 21.324219 25.40625 21.832031 24.980469 C 22.335938 24.554688 22.71875 24.039062 22.980469 23.433594 C 24.03125 21.015625 23.179688 17.320312 20.378906 12.125 C 19.972656 11.488281 19.707031 10.796875 19.585938 10.050781 C 19.464844 9.300781 19.496094 8.5625 19.679688 7.828125 C 20.234375 6.4375 21.175781 5.398438 22.503906 4.703125 C 22.734375 4.59375 22.933594 4.445312 23.101562 4.257812 C 23.269531 4.070312 23.398438 3.855469 23.480469 3.617188 C 23.566406 3.378906 23.601562 3.132812 23.585938 2.878906 C 23.574219 2.625 23.511719 2.386719 23.402344 2.15625 C 23.292969 1.929688 23.144531 1.730469 22.957031 1.5625 C 22.765625 1.390625 22.554688 1.265625 22.3125 1.179688 C 22.074219 1.097656 21.828125 1.0625 21.574219 1.074219 C 21.320312 1.085938 21.082031 1.148438 20.851562 1.257812 C 19.746094 1.820312 18.777344 2.5625 17.949219 3.484375 C 17.121094 4.410156 16.488281 5.453125 16.050781 6.613281 C 15.683594 7.847656 15.585938 9.101562 15.753906 10.378906 C 15.921875 11.652344 16.339844 12.839844 17.011719 13.9375 C 20.132812 19.726562 19.605469 21.59375 19.46875 21.910156 Z M 19.46875 21.910156"/><path fill="#10c79c" fill-opacity="1" fill-rule="nonzero" d="M 34.648438 21.910156 C 34.605469 22.007812 34.566406 22.09375 34.316406 22.160156 C 34.089844 22.21875 33.882812 22.316406 33.695312 22.449219 C 33.503906 22.585938 33.34375 22.75 33.214844 22.941406 C 33.085938 23.132812 32.992188 23.34375 32.941406 23.570312 C 32.886719 23.792969 32.875 24.023438 32.90625 24.253906 C 32.933594 24.484375 33.003906 24.699219 33.113281 24.90625 C 33.222656 25.109375 33.363281 25.289062 33.539062 25.445312 C 33.714844 25.597656 33.910156 25.714844 34.128906 25.796875 C 34.34375 25.878906 34.570312 25.917969 34.800781 25.917969 C 34.96875 25.917969 35.128906 25.898438 35.289062 25.855469 C 35.933594 25.699219 36.503906 25.40625 37.011719 24.980469 C 37.515625 24.554688 37.898438 24.039062 38.160156 23.433594 C 39.210938 21.015625 38.359375 17.320312 35.558594 12.125 C 35.152344 11.488281 34.886719 10.796875 34.765625 10.050781 C 34.644531 9.300781 34.675781 8.5625 34.859375 7.828125 C 35.414062 6.4375 36.355469 5.398438 37.683594 4.703125 C 37.914062 4.59375 38.113281 4.445312 38.28125 4.257812 C 38.449219 4.066406 38.578125 3.855469 38.660156 3.613281 C 38.746094 3.375 38.78125 3.128906 38.765625 2.878906 C 38.753906 2.625 38.691406 2.386719 38.582031 2.15625 C 38.472656 1.929688 38.324219 1.730469 38.132812 1.5625 C 37.945312 1.390625 37.730469 1.265625 37.492188 1.179688 C 37.253906 1.097656 37.007812 1.0625 36.753906 1.074219 C 36.5 1.085938 36.261719 1.148438 36.03125 1.257812 C 34.925781 1.820312 33.957031 2.5625 33.128906 3.484375 C 32.300781 4.410156 31.667969 5.453125 31.230469 6.613281 C 30.863281 7.847656 30.765625 9.101562 30.933594 10.378906 C 31.097656 11.652344 31.519531 12.839844 32.1875 13.9375 C 35.3125 19.726562 34.785156 21.59375 34.648438 21.910156 Z M 34.648438 21.910156"/><path fill="#10c79c" fill-opacity="1" fill-rule="nonzero" d="M 49.828125 21.910156 C 49.785156 22.007812 49.746094 22.09375 49.496094 22.160156 C 49.269531 22.21875 49.0625 22.316406 48.875 22.449219 C 48.683594 22.585938 48.523438 22.75 48.394531 22.941406 C 48.265625 23.132812 48.171875 23.34375 48.121094 23.570312 C 48.066406 23.792969 48.054688 24.023438 48.085938 24.253906 C 48.113281 24.484375 48.183594 24.699219 48.292969 24.90625 C 48.402344 25.109375 48.542969 25.289062 48.71875 25.445312 C 48.894531 25.597656 49.089844 25.714844 49.308594 25.796875 C 49.523438 25.878906 49.75 25.917969 49.980469 25.917969 C 50.148438 25.917969 50.308594 25.898438 50.46875 25.855469 C 51.113281 25.699219 51.683594 25.40625 52.1875 24.980469 C 52.695312 24.554688 53.078125 24.039062 53.339844 23.433594 C 54.390625 21.015625 53.539062 17.320312 50.738281 12.125 C 50.332031 11.488281 50.066406 10.796875 49.945312 10.050781 C 49.824219 9.300781 49.855469 8.5625 50.039062 7.828125 C 50.59375 6.4375 51.535156 5.398438 52.863281 4.703125 C 53.09375 4.59375 53.289062 4.445312 53.457031 4.253906 C 53.628906 4.066406 53.753906 3.851562 53.835938 3.613281 C 53.921875 3.375 53.957031 3.132812 53.941406 2.878906 C 53.925781 2.625 53.867188 2.386719 53.757812 2.160156 C 53.648438 1.929688 53.5 1.734375 53.308594 1.5625 C 53.121094 1.394531 52.910156 1.269531 52.671875 1.183594 C 52.433594 1.097656 52.1875 1.0625 51.933594 1.074219 C 51.679688 1.089844 51.441406 1.148438 51.210938 1.257812 C 50.105469 1.820312 49.136719 2.5625 48.308594 3.484375 C 47.480469 4.410156 46.847656 5.453125 46.410156 6.613281 C 46.042969 7.847656 45.945312 9.101562 46.113281 10.378906 C 46.277344 11.652344 46.699219 12.839844 47.367188 13.9375 C 50.492188 19.726562 49.964844 21.59375 49.828125 21.910156 Z M 49.828125 21.910156"/><g clip-path="url(#cf3a43e5d7)"><path fill="#10c79c" fill-opacity="1" fill-rule="nonzero" d="M 73.777344 35.203125 L 69.53125 35.203125 L 69.53125 31.292969 C 69.53125 31.039062 69.484375 30.792969 69.386719 30.558594 C 69.289062 30.328125 69.148438 30.121094 68.96875 29.941406 C 68.792969 29.761719 68.585938 29.625 68.347656 29.527344 C 68.113281 29.429688 67.871094 29.382812 67.617188 29.382812 L 1.988281 29.382812 C 1.734375 29.382812 1.492188 29.429688 1.257812 29.527344 C 1.023438 29.625 0.816406 29.761719 0.636719 29.941406 C 0.457031 30.121094 0.320312 30.328125 0.222656 30.558594 C 0.125 30.792969 0.0742188 31.039062 0.0742188 31.292969 L 0.0742188 36.445312 C 0.078125 37.578125 0.140625 38.707031 0.253906 39.832031 C 0.371094 40.960938 0.539062 42.078125 0.765625 43.1875 C 0.988281 44.296875 1.269531 45.394531 1.601562 46.476562 C 1.933594 47.558594 2.320312 48.621094 2.753906 49.667969 C 3.191406 50.710938 3.679688 51.734375 4.21875 52.730469 C 4.753906 53.726562 5.339844 54.695312 5.972656 55.636719 C 6.605469 56.574219 7.285156 57.480469 8.003906 58.355469 C 8.726562 59.226562 9.488281 60.0625 10.292969 60.863281 C 11.097656 61.660156 11.9375 62.417969 12.816406 63.136719 C 13.695312 63.851562 14.609375 64.523438 15.550781 65.148438 C 16.496094 65.777344 17.46875 66.355469 18.472656 66.886719 C 19.472656 67.417969 20.496094 67.902344 21.546875 68.332031 C 22.59375 68.765625 23.664062 69.144531 24.75 69.46875 C 25.835938 69.796875 26.933594 70.070312 28.046875 70.289062 C 29.160156 70.507812 30.28125 70.671875 31.410156 70.78125 C 32.539062 70.890625 33.671875 70.945312 34.804688 70.945312 C 36.859375 70.941406 38.898438 70.757812 40.917969 70.390625 C 42.941406 70.019531 44.910156 69.476562 46.835938 68.75 C 48.757812 68.027344 50.597656 67.136719 52.359375 66.082031 C 54.121094 65.023438 55.773438 63.820312 57.316406 62.464844 L 64.117188 62.464844 C 64.722656 62.464844 65.324219 62.433594 65.921875 62.375 C 66.523438 62.3125 67.117188 62.226562 67.707031 62.109375 C 68.296875 61.988281 68.882812 61.84375 69.457031 61.667969 C 70.035156 61.492188 70.601562 61.289062 71.160156 61.058594 C 71.714844 60.828125 72.257812 60.574219 72.789062 60.289062 C 73.320312 60.003906 73.839844 59.695312 74.339844 59.363281 C 74.839844 59.027344 75.324219 58.667969 75.789062 58.289062 C 76.253906 57.90625 76.699219 57.503906 77.125 57.078125 C 77.554688 56.652344 77.957031 56.207031 78.339844 55.742188 C 78.722656 55.277344 79.082031 54.796875 79.414062 54.296875 C 79.75 53.796875 80.058594 53.28125 80.34375 52.75 C 80.628906 52.21875 80.886719 51.675781 81.117188 51.121094 C 81.347656 50.566406 81.550781 50 81.726562 49.425781 C 81.902344 48.847656 82.046875 48.265625 82.167969 47.675781 C 82.285156 47.085938 82.375 46.492188 82.433594 45.894531 C 82.492188 45.296875 82.523438 44.695312 82.523438 44.09375 C 82.527344 43.515625 82.476562 42.941406 82.367188 42.375 C 82.261719 41.804688 82.097656 41.253906 81.878906 40.71875 C 81.664062 40.183594 81.394531 39.671875 81.078125 39.1875 C 80.761719 38.703125 80.398438 38.257812 79.992188 37.84375 C 79.585938 37.429688 79.144531 37.0625 78.667969 36.734375 C 78.1875 36.410156 77.683594 36.132812 77.148438 35.90625 C 76.617188 35.679688 76.066406 35.507812 75.5 35.386719 C 74.933594 35.269531 74.359375 35.207031 73.777344 35.203125 Z M 3.902344 36.445312 L 3.902344 33.203125 L 65.703125 33.203125 L 65.703125 37.078125 C 65.671875 39.179688 65.421875 41.253906 64.949219 43.300781 C 64.476562 45.347656 63.792969 47.324219 62.898438 49.226562 C 62.003906 51.128906 60.921875 52.914062 59.644531 54.585938 C 58.371094 56.257812 56.933594 57.777344 55.332031 59.144531 C 53.945312 60.414062 52.449219 61.546875 50.851562 62.542969 C 49.25 63.535156 47.574219 64.375 45.820312 65.054688 C 44.0625 65.738281 42.257812 66.253906 40.40625 66.601562 C 38.554688 66.949219 36.6875 67.121094 34.804688 67.121094 C 33.796875 67.125 32.789062 67.074219 31.785156 66.980469 C 30.78125 66.882812 29.78125 66.738281 28.792969 66.542969 C 27.804688 66.347656 26.824219 66.105469 25.859375 65.8125 C 24.894531 65.523438 23.945312 65.1875 23.011719 64.804688 C 22.078125 64.421875 21.164062 63.992188 20.273438 63.519531 C 19.382812 63.046875 18.519531 62.53125 17.679688 61.972656 C 16.835938 61.417969 16.027344 60.820312 15.246094 60.183594 C 14.464844 59.546875 13.714844 58.871094 13 58.160156 C 12.285156 57.453125 11.605469 56.707031 10.964844 55.929688 C 10.320312 55.15625 9.71875 54.347656 9.15625 53.511719 C 8.59375 52.675781 8.070312 51.816406 7.59375 50.929688 C 7.113281 50.042969 6.679688 49.132812 6.292969 48.207031 C 5.902344 47.277344 5.558594 46.332031 5.261719 45.367188 C 4.96875 44.40625 4.71875 43.429688 4.519531 42.441406 C 4.316406 41.457031 4.167969 40.460938 4.0625 39.460938 C 3.960938 38.457031 3.90625 37.453125 3.902344 36.445312 Z M 64.117188 58.644531 L 61.285156 58.644531 C 61.65625 58.21875 61.996094 57.769531 62.34375 57.328125 C 62.5 57.132812 62.667969 56.941406 62.820312 56.738281 C 63.457031 55.894531 64.050781 55.023438 64.601562 54.121094 C 64.722656 53.921875 64.828125 53.714844 64.945312 53.511719 C 65.367188 52.785156 65.765625 52.046875 66.132812 51.292969 C 66.273438 51 66.410156 50.707031 66.542969 50.410156 C 66.878906 49.667969 67.183594 48.910156 67.464844 48.144531 C 67.554688 47.894531 67.652344 47.652344 67.738281 47.402344 C 68.085938 46.378906 68.390625 45.335938 68.636719 44.277344 C 68.660156 44.179688 68.675781 44.078125 68.695312 43.976562 C 68.910156 43.027344 69.078125 42.0625 69.210938 41.089844 C 69.25 40.777344 69.28125 40.46875 69.316406 40.15625 C 69.355469 39.777344 69.417969 39.402344 69.445312 39.023438 L 73.777344 39.023438 C 74.105469 39.027344 74.429688 39.066406 74.753906 39.136719 C 75.074219 39.207031 75.382812 39.304688 75.683594 39.4375 C 75.984375 39.566406 76.269531 39.726562 76.539062 39.910156 C 76.808594 40.097656 77.058594 40.308594 77.289062 40.542969 C 77.515625 40.78125 77.71875 41.035156 77.894531 41.308594 C 78.074219 41.585938 78.222656 41.875 78.34375 42.179688 C 78.464844 42.484375 78.554688 42.796875 78.613281 43.121094 C 78.671875 43.441406 78.699219 43.765625 78.695312 44.09375 C 78.695312 45.050781 78.601562 45.996094 78.414062 46.929688 C 78.226562 47.867188 77.949219 48.777344 77.582031 49.660156 C 77.214844 50.542969 76.765625 51.378906 76.234375 52.171875 C 75.703125 52.96875 75.097656 53.703125 74.421875 54.378906 C 73.746094 55.050781 73.007812 55.65625 72.214844 56.1875 C 71.417969 56.71875 70.578125 57.164062 69.695312 57.53125 C 68.808594 57.898438 67.898438 58.171875 66.960938 58.359375 C 66.023438 58.546875 65.074219 58.640625 64.117188 58.644531 Z M 64.117188 58.644531"/></g><path fill="#10c79c" fill-opacity="1" fill-rule="nonzero" d="M 64.359375 76.914062 L 1.988281 76.914062 C 1.734375 76.914062 1.492188 76.960938 1.257812 77.058594 C 1.023438 77.15625 0.816406 77.292969 0.636719 77.472656 C 0.457031 77.652344 0.320312 77.859375 0.222656 78.09375 C 0.125 78.328125 0.0742188 78.570312 0.0742188 78.824219 C 0.0742188 79.078125 0.125 79.320312 0.222656 79.554688 C 0.320312 79.789062 0.457031 79.996094 0.636719 80.175781 C 0.816406 80.355469 1.023438 80.492188 1.257812 80.589844 C 1.492188 80.6875 1.734375 80.734375 1.988281 80.734375 L 64.359375 80.734375 C 64.613281 80.734375 64.855469 80.6875 65.089844 80.589844 C 65.324219 80.492188 65.53125 80.355469 65.710938 80.175781 C 65.890625 79.996094 66.03125 79.789062 66.128906 79.554688 C 66.222656 79.320312 66.273438 79.078125 66.273438 78.824219 C 66.273438 78.570312 66.222656 78.328125 66.128906 78.09375 C 66.03125 77.859375 65.890625 77.652344 65.710938 77.472656 C 65.53125 77.292969 65.324219 77.15625 65.089844 77.058594 C 64.855469 76.960938 64.613281 76.914062 64.359375 76.914062 Z M 64.359375 76.914062"/><g clip-path="url(#2ea3902407)"><path fill="#10c79c" fill-opacity="1" fill-rule="nonzero" d="M 57.800781 85.839844 L 10.109375 85.839844 C 9.855469 85.839844 9.609375 85.886719 9.375 85.984375 C 9.140625 86.082031 8.933594 86.21875 8.753906 86.398438 C 8.574219 86.578125 8.4375 86.785156 8.339844 87.019531 C 8.242188 87.253906 8.195312 87.496094 8.195312 87.75 C 8.195312 88.003906 8.242188 88.246094 8.339844 88.480469 C 8.4375 88.714844 8.574219 88.921875 8.753906 89.101562 C 8.933594 89.28125 9.140625 89.417969 9.375 89.515625 C 9.609375 89.613281 9.855469 89.660156 10.109375 89.660156 L 57.800781 89.660156 C 58.054688 89.660156 58.300781 89.613281 58.535156 89.515625 C 58.769531 89.417969 58.976562 89.28125 59.15625 89.101562 C 59.335938 88.921875 59.472656 88.714844 59.570312 88.480469 C 59.667969 88.246094 59.714844 88.003906 59.714844 87.75 C 59.714844 87.496094 59.667969 87.253906 59.570312 87.019531 C 59.472656 86.785156 59.335938 86.578125 59.15625 86.398438 C 58.976562 86.21875 58.769531 86.082031 58.535156 85.984375 C 58.300781 85.886719 58.054688 85.839844 57.800781 85.839844 Z M 57.800781 85.839844"/></g></svg>