<svg xmlns="http://www.w3.org/2000/svg" xmlns:xlink="http://www.w3.org/1999/xlink" width="79" zoomAndPan="magnify" viewBox="0 0 59.25 90" height="120" preserveAspectRatio="xMidYMid meet" version="1.0"><defs><clipPath id="e08a726762"><path d="M 0 0.5625 L 58.507812 0.5625 L 58.507812 89.4375 L 0 89.4375 Z M 0 0.5625 " clip-rule="nonzero"/></clipPath></defs><g clip-path="url(#e08a726762)"><path fill="#10c79c" d="M 29.253906 83.632812 L 53.542969 38.234375 C 54.003906 36.910156 54.347656 35.542969 54.589844 34.15625 C 54.828125 32.753906 54.949219 31.304688 54.949219 29.820312 C 54.949219 22.734375 52.074219 16.308594 47.429688 11.667969 C 42.765625 7.03125 36.351562 4.160156 29.253906 4.160156 C 22.15625 4.160156 15.742188 7.03125 11.078125 11.667969 C 6.433594 16.308594 3.558594 22.734375 3.558594 29.820312 C 3.558594 31.304688 3.679688 32.753906 3.921875 34.15625 C 4.160156 35.542969 4.503906 36.910156 4.964844 38.234375 Z M 29.253906 13.859375 C 33.757812 13.859375 37.820312 15.683594 40.753906 18.636719 C 43.710938 21.570312 45.539062 25.625 45.539062 30.121094 C 45.539062 31.046875 45.460938 31.949219 45.300781 32.851562 C 45.140625 33.757812 44.917969 34.640625 44.617188 35.503906 C 43.488281 38.714844 41.378906 41.464844 38.644531 43.394531 C 35.992188 45.261719 32.753906 46.367188 29.253906 46.367188 C 25.757812 46.367188 22.519531 45.261719 19.863281 43.394531 C 17.128906 41.464844 15.039062 38.714844 13.914062 35.503906 L 13.894531 35.523438 C 13.59375 34.660156 13.371094 33.777344 13.210938 32.851562 C 13.050781 31.949219 12.96875 31.046875 12.96875 30.121094 C 12.96875 25.625 14.796875 21.570312 17.753906 18.636719 C 20.6875 15.683594 24.75 13.859375 29.253906 13.859375 Z M 38.261719 21.125 C 35.949219 18.835938 32.773438 17.414062 29.253906 17.414062 C 25.734375 17.414062 22.558594 18.835938 20.246094 21.125 C 17.953125 23.4375 16.527344 26.609375 16.527344 30.121094 C 16.527344 30.863281 16.585938 31.585938 16.707031 32.269531 C 16.828125 32.972656 17.011719 33.675781 17.230469 34.339844 C 18.117188 36.847656 19.765625 38.996094 21.894531 40.503906 C 23.964844 41.96875 26.5 42.832031 29.253906 42.832031 C 32.007812 42.832031 34.542969 41.96875 36.613281 40.503906 C 38.746094 38.996094 40.394531 36.847656 41.277344 34.339844 C 41.5 33.675781 41.679688 32.992188 41.800781 32.269531 C 41.921875 31.585938 41.980469 30.863281 41.980469 30.121094 C 41.980469 26.609375 40.554688 23.4375 38.261719 21.125 Z M 56.738281 39.738281 L 30.824219 88.1875 C 30.664062 88.511719 30.421875 88.769531 30.078125 88.933594 C 29.234375 89.394531 28.148438 89.070312 27.6875 88.207031 L 1.828125 39.859375 C 1.769531 39.738281 1.710938 39.640625 1.667969 39.5 C 1.125 37.972656 0.703125 36.367188 0.421875 34.738281 C 0.160156 33.113281 0 31.488281 0 29.820312 C 0 21.75 3.277344 14.460938 8.585938 9.160156 C 13.875 3.878906 21.171875 0.605469 29.253906 0.605469 C 37.335938 0.605469 44.636719 3.878906 49.925781 9.160156 C 55.230469 14.460938 58.507812 21.75 58.507812 29.820312 C 58.507812 31.488281 58.347656 33.113281 58.085938 34.738281 C 57.804688 36.367188 57.382812 37.972656 56.839844 39.5 C 56.820312 39.578125 56.78125 39.660156 56.738281 39.738281 Z M 56.738281 39.738281 " fill-opacity="1" fill-rule="nonzero"/></g></svg>