<svg xmlns="http://www.w3.org/2000/svg" xmlns:xlink="http://www.w3.org/1999/xlink" width="120" height="120" preserveAspectRatio="xMidYMid meet" version="1.0" viewBox="0 0 90 90" zoomAndPan="magnify"><path fill="#10c79c" fill-opacity="1" fill-rule="nonzero" d="M 39.3125 23.238281 L 9.828125 23.238281 C 9.054688 23.238281 8.425781 23.867188 8.425781 24.640625 C 8.425781 25.414062 9.054688 26.046875 9.828125 26.046875 L 39.3125 26.046875 C 40.085938 26.046875 40.71875 25.414062 40.71875 24.640625 C 40.71875 23.867188 40.085938 23.238281 39.3125 23.238281 Z M 39.3125 23.238281"/><path fill="#10c79c" fill-opacity="1" fill-rule="nonzero" d="M 39.3125 28.851562 L 9.828125 28.851562 C 9.054688 28.851562 8.425781 29.484375 8.425781 30.257812 C 8.425781 31.03125 9.054688 31.660156 9.828125 31.660156 L 39.3125 31.660156 C 40.085938 31.660156 40.71875 31.03125 40.71875 30.257812 C 40.71875 29.484375 40.085938 28.851562 39.3125 28.851562 Z M 39.3125 28.851562"/><path fill="#10c79c" fill-opacity="1" fill-rule="nonzero" d="M 39.3125 34.46875 L 9.828125 34.46875 C 9.054688 34.46875 8.425781 35.101562 8.425781 35.875 C 8.425781 36.644531 9.054688 37.277344 9.828125 37.277344 L 39.3125 37.277344 C 40.085938 37.277344 40.71875 36.644531 40.71875 35.875 C 40.71875 35.101562 40.085938 34.46875 39.3125 34.46875 Z M 39.3125 34.46875"/><path fill="#10c79c" fill-opacity="1" fill-rule="nonzero" d="M 40.71875 75.890625 C 40.71875 75.117188 40.085938 74.484375 39.3125 74.484375 L 9.828125 74.484375 C 9.054688 74.484375 8.425781 75.117188 8.425781 75.890625 C 8.425781 76.660156 9.054688 77.292969 9.828125 77.292969 L 39.3125 77.292969 C 40.085938 77.292969 40.71875 76.660156 40.71875 75.890625 Z M 40.71875 75.890625"/><path fill="#10c79c" fill-opacity="1" fill-rule="nonzero" d="M 9.828125 80.101562 C 9.054688 80.101562 8.425781 80.734375 8.425781 81.503906 C 8.425781 82.277344 9.054688 82.910156 9.828125 82.910156 L 30.1875 82.910156 C 30.960938 82.910156 31.589844 82.277344 31.589844 81.503906 C 31.589844 80.734375 30.960938 80.101562 30.1875 80.101562 Z M 9.828125 80.101562"/><path fill="#10c79c" fill-opacity="1" fill-rule="nonzero" d="M 30.1875 54.828125 C 30.960938 54.828125 31.589844 54.195312 31.589844 53.425781 C 31.589844 52.652344 30.960938 52.019531 30.1875 52.019531 L 9.828125 52.019531 C 9.054688 52.019531 8.425781 52.652344 8.425781 53.425781 C 8.425781 54.195312 9.054688 54.828125 9.828125 54.828125 Z M 30.1875 54.828125"/><path fill="#10c79c" fill-opacity="1" fill-rule="nonzero" d="M 8.425781 66.0625 C 8.425781 67.605469 9.6875 68.867188 11.234375 68.867188 L 16.847656 68.867188 C 18.394531 68.867188 19.65625 67.605469 19.65625 66.0625 L 19.65625 60.445312 C 19.65625 58.898438 18.394531 57.636719 16.847656 57.636719 L 11.234375 57.636719 C 9.6875 57.636719 8.425781 58.898438 8.425781 60.445312 Z M 11.234375 60.445312 L 16.847656 60.445312 L 16.847656 66.0625 L 11.234375 66.0625 Z M 11.234375 60.445312"/><path fill="#10c79c" fill-opacity="1" fill-rule="nonzero" d="M 38.472656 48.371094 L 40.4375 46.402344 L 9.828125 46.402344 C 9.054688 46.402344 8.425781 47.035156 8.425781 47.808594 C 8.425781 48.582031 9.054688 49.210938 9.828125 49.210938 L 37.769531 49.210938 C 37.980469 48.859375 38.191406 48.582031 38.472656 48.371094 Z M 38.472656 48.371094"/><path fill="#10c79c" fill-opacity="1" fill-rule="nonzero" d="M 64.445312 22.324219 C 64.09375 21.203125 63.042969 20.429688 61.777344 20.429688 L 47.738281 20.429688 C 46.195312 20.429688 44.929688 21.691406 44.929688 23.238281 L 44.929688 37.277344 C 44.929688 38.542969 45.773438 39.523438 46.824219 39.945312 L 49.492188 37.277344 L 47.738281 37.277344 L 47.738281 23.238281 L 61.777344 23.238281 L 61.777344 24.992188 Z M 64.445312 22.324219"/><path fill="#10c79c" fill-opacity="1" fill-rule="nonzero" d="M 51.878906 63.042969 L 50.546875 63.464844 L 50.546875 66.0625 C 50.546875 67.605469 51.808594 68.867188 53.355469 68.867188 L 58.96875 68.867188 C 60.515625 68.867188 61.777344 67.605469 61.777344 66.0625 L 61.777344 60.445312 C 61.777344 58.898438 60.515625 57.636719 58.96875 57.636719 L 57.917969 57.636719 L 55.109375 60.445312 L 58.96875 60.445312 L 58.96875 66.0625 L 53.355469 66.0625 L 53.355469 62.199219 C 52.933594 62.550781 52.441406 62.832031 51.878906 63.042969 Z M 51.878906 63.042969"/><path fill="#10c79c" fill-opacity="1" fill-rule="nonzero" d="M 34.328125 60.445312 L 35.171875 57.636719 L 32.292969 57.636719 C 30.75 57.636719 29.484375 58.898438 29.484375 60.445312 L 29.484375 66.0625 C 29.484375 67.605469 30.75 68.867188 32.292969 68.867188 L 37.910156 68.867188 C 39.171875 68.867188 40.296875 67.957031 40.578125 66.761719 L 39.242188 67.183594 C 38.820312 67.394531 38.332031 67.464844 37.910156 67.464844 C 36.785156 67.464844 35.804688 67.042969 34.960938 66.269531 C 34.890625 66.203125 34.820312 66.132812 34.75 66.0625 L 32.292969 66.0625 L 32.292969 60.445312 Z M 34.328125 60.445312"/><path fill="#10c79c" fill-opacity="1" fill-rule="nonzero" d="M 73.011719 13.757812 L 73.011719 5.6875 C 73.011719 2.597656 70.484375 0.0703125 67.394531 0.0703125 L 5.617188 0.0703125 C 2.527344 0.0703125 0 2.597656 0 5.6875 L 0 84.3125 C 0 87.402344 2.527344 89.929688 5.617188 89.929688 L 67.394531 89.929688 C 70.484375 89.929688 73.011719 87.402344 73.011719 84.3125 L 73.011719 42.542969 L 70.203125 45.351562 L 70.203125 84.3125 C 70.203125 85.859375 68.9375 87.121094 67.394531 87.121094 L 5.617188 87.121094 C 4.070312 87.121094 2.808594 85.859375 2.808594 84.3125 L 2.808594 12.707031 L 70.203125 12.707031 L 70.203125 16.566406 Z M 2.808594 9.898438 L 2.808594 5.6875 C 2.808594 4.140625 4.070312 2.878906 5.617188 2.878906 L 67.394531 2.878906 C 68.9375 2.878906 70.203125 4.140625 70.203125 5.6875 L 70.203125 9.898438 Z M 2.808594 9.898438"/><path fill="#10c79c" fill-opacity="1" fill-rule="nonzero" d="M 81.015625 11.722656 C 80.453125 11.164062 79.609375 11.164062 79.046875 11.722656 L 40.4375 50.335938 C 40.296875 50.476562 40.15625 50.6875 40.085938 50.898438 L 36.574219 62.832031 C 36.433594 63.324219 36.574219 63.882812 36.925781 64.234375 C 37.207031 64.515625 37.558594 64.65625 37.910156 64.65625 C 38.050781 64.65625 38.191406 64.65625 38.332031 64.585938 L 50.96875 60.375 C 51.179688 60.304688 51.386719 60.164062 51.527344 60.023438 L 89.4375 22.113281 C 90 21.550781 90 20.710938 89.4375 20.148438 Z M 40.015625 61.078125 L 42.683594 52.089844 L 42.824219 51.949219 L 49 58.128906 Z M 51.25 56.371094 L 44.789062 49.914062 L 75.117188 19.585938 L 81.574219 26.046875 Z M 83.542969 24.078125 L 77.082031 17.621094 L 80.03125 14.671875 L 86.488281 21.132812 Z M 83.542969 24.078125"/></svg>