<svg xmlns="http://www.w3.org/2000/svg" xmlns:xlink="http://www.w3.org/1999/xlink" width="103" height="40" preserveAspectRatio="xMidYMid meet" version="1.0" viewBox="0 0 77.25 30" zoomAndPan="magnify"><defs><clipPath id="5f489e1827"><path d="M 0.882812 2 L 73 2 L 73 29.03125 L 0.882812 29.03125 Z M 0.882812 2" clip-rule="nonzero"/></clipPath><clipPath id="795ffde0ab"><path d="M 69 0.0625 L 75.640625 0.0625 L 75.640625 7 L 69 7 Z M 69 0.0625" clip-rule="nonzero"/></clipPath></defs><g clip-path="url(#5f489e1827)"><path fill="#8d8d8d" fill-opacity="1" fill-rule="nonzero" d="M 71.691406 3.542969 C 71.6875 3.546875 71.683594 3.546875 71.679688 3.546875 C 71.113281 3.648438 70.554688 3.761719 70.011719 3.878906 C 70.007812 3.878906 70.007812 3.878906 70.007812 3.878906 C 69.734375 3.9375 69.46875 3.761719 69.410156 3.488281 C 69.351562 3.214844 69.523438 2.945312 69.796875 2.886719 C 70.351562 2.769531 70.921875 2.652344 71.496094 2.550781 C 71.773438 2.5 72.035156 2.683594 72.085938 2.957031 C 72.136719 3.230469 71.957031 3.488281 71.691406 3.542969 Z M 64.496094 5.425781 C 64.253906 5.476562 64.003906 5.339844 63.917969 5.097656 C 63.824219 4.835938 63.964844 4.546875 64.226562 4.453125 C 65.117188 4.136719 66.046875 3.84375 66.988281 3.582031 C 67.257812 3.503906 67.535156 3.664062 67.613281 3.933594 C 67.6875 4.203125 67.527344 4.480469 67.257812 4.558594 C 66.339844 4.816406 65.433594 5.101562 64.5625 5.410156 C 64.542969 5.417969 64.519531 5.421875 64.496094 5.425781 Z M 59.261719 7.730469 C 59.046875 7.773438 58.820312 7.675781 58.710938 7.472656 C 58.582031 7.222656 58.675781 6.917969 58.921875 6.785156 C 59.769531 6.332031 60.644531 5.90625 61.53125 5.519531 C 61.785156 5.40625 62.085938 5.523438 62.195312 5.777344 C 62.308594 6.035156 62.191406 6.335938 61.9375 6.445312 C 61.074219 6.824219 60.222656 7.242188 59.398438 7.679688 C 59.351562 7.703125 59.308594 7.71875 59.261719 7.730469 Z M 2.886719 20.332031 C 2.683594 20.375 2.464844 20.285156 2.351562 20.09375 C 1.855469 19.273438 1.402344 18.398438 1 17.492188 C 0.886719 17.234375 1.003906 16.9375 1.257812 16.824219 C 1.511719 16.710938 1.8125 16.824219 1.925781 17.078125 C 2.308594 17.945312 2.746094 18.785156 3.21875 19.574219 C 3.363281 19.8125 3.285156 20.125 3.046875 20.269531 C 2.996094 20.296875 2.941406 20.320312 2.886719 20.332031 Z M 54.425781 10.796875 C 54.238281 10.835938 54.039062 10.765625 53.917969 10.597656 C 53.75 10.371094 53.800781 10.054688 54.027344 9.890625 C 54.832031 9.296875 55.617188 8.757812 56.414062 8.25 C 56.652344 8.101562 56.964844 8.167969 57.113281 8.40625 C 57.265625 8.644531 57.195312 8.957031 56.957031 9.105469 C 56.175781 9.601562 55.414062 10.125 54.625 10.707031 C 54.5625 10.75 54.496094 10.78125 54.425781 10.796875 Z M 49.984375 14.414062 C 49.808594 14.449219 49.621094 14.394531 49.5 14.25 C 49.316406 14.039062 49.335938 13.71875 49.546875 13.535156 C 50.375 12.8125 51.074219 12.21875 51.742188 11.667969 C 51.960938 11.492188 52.277344 11.523438 52.457031 11.738281 C 52.632812 11.957031 52.601562 12.273438 52.382812 12.453125 C 51.722656 12.996094 51.03125 13.582031 50.210938 14.300781 C 50.144531 14.359375 50.066406 14.398438 49.984375 14.414062 Z M 6.480469 24.785156 C 6.328125 24.816406 6.160156 24.777344 6.035156 24.660156 C 5.324219 24.003906 4.652344 23.28125 4.027344 22.507812 C 3.855469 22.289062 3.886719 21.96875 4.105469 21.792969 C 4.324219 21.617188 4.640625 21.652344 4.816406 21.871094 C 5.40625 22.605469 6.046875 23.292969 6.722656 23.914062 C 6.925781 24.105469 6.941406 24.425781 6.75 24.632812 C 6.675781 24.710938 6.582031 24.761719 6.480469 24.785156 Z M 45.679688 18.207031 C 45.503906 18.242188 45.316406 18.1875 45.191406 18.039062 C 45.011719 17.828125 45.035156 17.507812 45.25 17.324219 C 45.933594 16.738281 46.601562 16.144531 47.398438 15.441406 C 47.605469 15.253906 47.925781 15.273438 48.113281 15.484375 C 48.296875 15.691406 48.277344 16.011719 48.070312 16.199219 C 47.269531 16.910156 46.597656 17.503906 45.90625 18.097656 C 45.839844 18.152344 45.761719 18.191406 45.679688 18.207031 Z M 11.253906 27.917969 C 11.15625 27.941406 11.050781 27.929688 10.953125 27.886719 C 10.0625 27.503906 9.1875 27.03125 8.355469 26.480469 C 8.121094 26.328125 8.054688 26.011719 8.210938 25.777344 C 8.363281 25.546875 8.675781 25.480469 8.910156 25.632812 C 9.695312 26.152344 10.515625 26.597656 11.351562 26.957031 C 11.609375 27.066406 11.726562 27.363281 11.617188 27.621094 C 11.546875 27.78125 11.410156 27.886719 11.253906 27.917969 Z M 41.171875 21.742188 C 40.976562 21.785156 40.769531 21.707031 40.652344 21.535156 C 40.492188 21.304688 40.550781 20.988281 40.777344 20.828125 C 41.527344 20.308594 42.269531 19.757812 43.054688 19.140625 C 43.273438 18.964844 43.589844 19.003906 43.765625 19.222656 C 43.9375 19.445312 43.898438 19.761719 43.679688 19.9375 C 42.878906 20.566406 42.121094 21.132812 41.355469 21.664062 C 41.296875 21.703125 41.234375 21.730469 41.171875 21.742188 Z M 36.242188 24.65625 C 36.019531 24.699219 35.789062 24.59375 35.6875 24.382812 C 35.5625 24.128906 35.667969 23.824219 35.917969 23.703125 C 36.753906 23.292969 37.589844 22.839844 38.402344 22.359375 C 38.640625 22.21875 38.953125 22.296875 39.09375 22.539062 C 39.238281 22.78125 39.15625 23.089844 38.917969 23.234375 C 38.082031 23.726562 37.222656 24.191406 36.363281 24.613281 C 36.324219 24.632812 36.28125 24.648438 36.242188 24.65625 Z M 16.828125 29.074219 C 16.796875 29.082031 16.765625 29.085938 16.730469 29.085938 C 15.757812 29.097656 14.765625 29 13.773438 28.789062 C 13.5 28.730469 13.324219 28.464844 13.382812 28.1875 C 13.441406 27.914062 13.710938 27.738281 13.984375 27.796875 C 14.898438 27.992188 15.820312 28.085938 16.71875 28.070312 C 16.996094 28.070312 17.226562 28.292969 17.230469 28.574219 C 17.234375 28.820312 17.0625 29.027344 16.828125 29.074219 Z M 30.929688 26.769531 C 30.675781 26.824219 30.421875 26.675781 30.34375 26.425781 C 30.261719 26.160156 30.410156 25.875 30.675781 25.789062 C 31.582031 25.503906 32.476562 25.1875 33.335938 24.84375 C 33.597656 24.742188 33.890625 24.871094 33.992188 25.128906 C 34.097656 25.390625 33.96875 25.683594 33.710938 25.789062 C 32.828125 26.136719 31.910156 26.464844 30.976562 26.757812 C 30.960938 26.761719 30.945312 26.765625 30.929688 26.769531 Z M 22.539062 28.578125 C 22.527344 28.582031 22.515625 28.585938 22.503906 28.585938 C 21.574219 28.707031 20.609375 28.8125 19.628906 28.898438 C 19.351562 28.921875 19.105469 28.71875 19.082031 28.4375 C 19.058594 28.160156 19.261719 27.914062 19.542969 27.890625 C 20.503906 27.804688 21.457031 27.699219 22.371094 27.582031 C 22.648438 27.542969 22.902344 27.738281 22.9375 28.015625 C 22.972656 28.28125 22.796875 28.527344 22.539062 28.578125 Z M 26.523438 27.910156 C 26.140625 27.988281 25.75 28.066406 25.359375 28.136719 C 25.085938 28.1875 24.820312 28.003906 24.769531 27.730469 C 24.71875 27.453125 24.90625 27.191406 25.175781 27.140625 C 26.125 26.964844 27.058594 26.765625 27.949219 26.550781 C 28.222656 26.484375 28.496094 26.648438 28.5625 26.921875 C 28.628906 27.195312 28.460938 27.46875 28.191406 27.535156 C 27.644531 27.667969 27.085938 27.792969 26.523438 27.910156"/></g><g clip-path="url(#795ffde0ab)"><path fill="#8d8d8d" fill-opacity="1" fill-rule="nonzero" d="M 75.359375 2.925781 L 71.335938 6.113281 C 71 6.378906 70.515625 6.089844 70.589844 5.667969 L 71.003906 3.304688 C 71.019531 3.207031 71.003906 3.105469 70.960938 3.015625 L 69.890625 0.867188 C 69.699219 0.484375 70.082031 0.0703125 70.476562 0.226562 L 75.242188 2.128906 C 75.574219 2.261719 75.640625 2.703125 75.359375 2.925781"/></g></svg>